# ProBuilder 4.5.2
# https://unity3d.com/unity/features/worldbuilding/probuilder
# 22/02/2023 11:01:58

mtllib ./New_Game_Object_(2).mtl
o New Game Object (2)

g New Game Object (2)
v -31 4 77
v -31 4.999999 77
v -54 4.999999 77
v -54 4 77
v -31.00001 3.999999 107
v -31.00001 4.999998 107
v -58 4.999999 77
v -58 4 77
v -54 4 76
v -58 4 76
v -58 -9.715559E-07 77
v -54 -1.043082E-06 77
v -58 3.576308E-08 76
v -54 -1.065812E-13 76
v -31 -1.329187E-06 77
v -54 4 77
v -31.00001 -1.692776E-06 107
v -58 4 77
v -60 4.999999 77
v -60 4 77
v -60 4 78
v -60 4.999999 78
v -60 4 77
v -60 4 78
v -60 -9.357928E-07 77
v -60 -8.344651E-07 78
v -60 4 107
v -60 4.999999 107
v -60 4.999999 91
v -60 4 91
v -60 4 107
v -60 4 106
v -60 -9.357927E-07 107
v -60 -8.702281E-07 106
v -64 4 106
v -64 4 78
v -64 -8.165835E-07 78
v -64 -7.987019E-07 106
v -59 4 77
v -59 4.999999 77
v -58 4 107
v -58 4.999999 107
v -59 -9.536743E-07 77
v -59 4 77
v -58 4 107
v -58 -1.209974E-06 107
v -54 4 107
v -54 4.999999 107
v -54 4 107
v -54 -1.519919E-06 107

vt 27 4
vt 27 4.999999
vt 3.999999 4.999999
vt 3.999999 4
vt 31 4
vt 31 4.999999
vt 0.999996 4.999999
vt 0.999996 4
vt -1.165281E-06 4.999999
vt -1.1474E-06 4
vt 3.999999 0.999999
vt -1.162301E-06 0.999999
vt 3.999999 -9.656036E-07
vt -1.144419E-06 -1.03713E-06
vt -3.999999 0.999999
vt -3.999999 -9.656037E-07
vt 27 -8.463851E-07
vt 3.999999 4
vt 31 -1.209975E-06
vt 0.999996 -8.463851E-07
vt 0.999999 4
vt -0.999999 -9.715559E-07
vt -0.999999 4
vt -0.999999 4
vt -0.9999989 4.999999
vt -1.999999 4
vt -1.999999 4.999999
vt -1.999999 4
vt -1.999999 -8.702282E-07
vt -31 4
vt -31 4.999999
vt -15 4.999999
vt -15 4
vt -31 4
vt -30 4
vt -31 -9.715559E-07
vt -30 -9.059912E-07
vt -30 4
vt -2.000002 30
vt -2.000002 1.999999
vt -6.000002 30
vt -6.000001 1.999999
vt -2.000001 4
vt -2.000001 -8.702282E-07
vt -6.000001 4
vt -6.000001 -9.238728E-07
vt 2.000001 1.999999
vt 2.000002 30
vt 6.000001 1.999999
vt 6.000002 30
vt 2.000002 -9.059912E-07
vt 2.000002 4
vt 6.000002 -9.059912E-07
vt 6.000002 4
vt -1.000001 4
vt -1.000001 4.999999
vt -2.000001 4
vt -2.000001 4.999999
vt 2.000001 4.999999
vt 2.000001 4
vt -1.132498E-06 4
vt -1.000001 -9.715559E-07
vt -1.000001 4
vt -1.000001 0.9999989
vt -2.000001 0.9999989
vt -2.000001 15
vt -2.000002 31
vt -2.023743E-06 31
vt 2.000002 31
vt 2.000001 0.9999989
vt 1.000001 0.9999989
vt -3.999995 4
vt -3.999995 4.999999
vt -26.99999 4
vt -26.99999 4.999999
vt -3.999995 4
vt -26.99999 -1.209974E-06
vt 26.99999 31
vt 27 0.9999995
vt 3.999994 31
vt -27 0.9999995
vt -26.99999 31
vt -3.999998 31

vn -2.589964E-10 1.645061E-16 1
vn -1 1.788155E-08 -1.09275E-07
vn -1.788155E-08 -1 1.598749E-16
vn 1.788154E-08 1 1.007319E-06
vn 0 0 0
vn -0.5 8.940774E-09 -5.463752E-08
vn 1 -5.329071E-15 4.440892E-14
vn -1.788155E-08 1.598749E-16 -1

usemtl ProBuilderDefault
f 28/67/3 29/66/3 42/68/3
f 29/66/3 22/40/3 42/68/3
f 22/40/3 40/64/3 42/68/3
f 22/40/3 19/65/3 40/64/3
f 43/71/4 25/70/4 26/47/4
f 46/68/4 43/71/4 26/47/4
f 46/68/4 26/47/4 34/48/4
f 46/68/4 34/48/4 33/69/4
f 3/11/3 2/79/3 6/78/3
f 48/80/3 3/11/3 6/78/3
f 7/12/3 3/11/3 48/80/3
f 42/68/3 7/12/3 48/80/3
f 40/64/3 7/12/3 42/68/3
f 46/68/4 11/12/4 43/71/4
f 50/83/4 11/12/4 46/68/4
f 50/83/4 12/15/4 11/12/4
f 17/82/4 12/15/4 50/83/4
f 17/82/4 15/81/4 12/15/4
f 3/3/1 4/4/1 1/1/1
f 1/1/1 2/2/1 3/3/1
f 1/8/2 5/5/2 6/6/2
f 6/6/2 2/7/2 1/8/2
f 8/10/1 4/4/1 3/3/1
f 3/3/1 7/9/1 8/10/1
f 9/13/3 4/11/3 8/12/3
f 8/12/3 10/14/3 9/13/3
f 13/14/4 11/12/4 12/15/4
f 12/15/4 14/16/4 13/14/4
f 16/18/1 12/13/1 15/17/1
f 15/17/1 1/1/1 16/18/1
f 4/4/5 16/18/5 1/1/5
f 1/1/5 1/1/5 4/4/5
f 1/8/6 5/5/2 5/5/6
f 5/5/6 1/8/5 1/8/6
f 15/20/2 17/19/2 5/5/2
f 5/5/2 1/8/2 15/20/2
f 9/10/5 9/10/5 16/21/5
f 16/21/5 4/8/5 9/10/5
f 14/14/2 12/20/2 16/21/2
f 16/21/2 9/10/2 14/14/2
f 11/22/7 13/14/7 10/10/7
f 10/10/7 18/23/7 11/22/7
f 10/10/5 10/10/5 8/24/5
f 8/24/5 18/23/5 10/10/5
f 19/25/7 22/27/7 21/26/7
f 21/26/7 20/24/7 19/25/7
f 20/24/5 21/26/5 24/28/5
f 24/28/5 23/23/5 20/24/5
f 23/23/7 24/28/7 26/29/7
f 26/29/7 25/22/7 23/23/7
f 29/32/7 28/31/7 27/30/7
f 27/30/7 30/33/7 29/32/7
f 22/27/7 29/32/7 30/33/7
f 30/33/7 21/26/7 22/27/7
f 30/33/5 32/35/5 31/34/5
f 31/34/5 27/30/5 30/33/5
f 21/26/5 24/28/5 32/35/5
f 32/35/5 30/33/5 21/26/5
f 34/37/7 32/35/7 31/34/7
f 31/34/7 33/36/7 34/37/7
f 37/29/7 36/26/7 35/38/7
f 35/38/7 38/37/7 37/29/7
f 36/42/3 24/40/3 32/39/3
f 32/39/3 35/41/3 36/42/3
f 38/50/4 34/48/4 26/47/4
f 26/47/4 37/49/4 38/50/4
f 39/55/1 8/10/1 7/9/1
f 7/9/1 40/56/1 39/55/1
f 19/58/1 20/57/1 39/55/1
f 39/55/1 40/56/1 19/58/1
f 28/59/8 42/9/8 41/10/8
f 41/10/8 27/60/8 28/59/8
f 43/62/1 11/14/1 18/61/1
f 18/61/1 44/63/1 43/62/1
f 23/43/1 25/44/1 43/62/1
f 43/62/1 44/63/1 23/43/1
f 39/55/5 44/63/5 18/61/5
f 18/61/5 8/10/5 39/55/5
f 20/57/5 23/43/5 44/63/5
f 44/63/5 39/55/5 20/57/5
f 31/52/5 27/60/5 41/10/5
f 41/10/5 45/61/5 31/52/5
f 46/14/8 33/51/8 31/52/8
f 31/52/8 45/61/8 46/14/8
f 47/72/8 41/10/8 42/9/8
f 42/9/8 48/73/8 47/72/8
f 5/74/8 47/72/8 48/73/8
f 48/73/8 6/75/8 5/74/8
f 41/10/5 47/72/5 49/76/5
f 49/76/5 45/61/5 41/10/5
f 5/74/8 49/76/8 47/72/8
f 47/72/8 5/74/8 5/74/8
f 17/77/8 50/16/8 49/76/8
f 49/76/8 5/74/8 17/77/8
f 50/16/8 46/14/8 45/61/8
f 45/61/8 49/76/8 50/16/8

usemtl Blue
f 38/53/8 35/54/8 32/52/8 34/51/8

usemtl Red
f 36/45/1 37/46/1 26/44/1 24/43/1

