# Blender v2.93.6 OBJ File: 'shape .blend'
# www.blender.org
mtllib keycard 3 model.mtl
o Cube.001
v -0.118884 0.006726 -0.071469
v -0.118884 0.006726 0.071469
v 0.118884 0.006726 0.071469
v 0.118884 0.006726 -0.071469
v -0.132093 0.006054 0.071469
v -0.132093 0.006054 -0.071469
v -0.132093 -0.006054 -0.071469
v -0.132093 -0.006054 0.071469
v 0.118884 0.006054 0.079410
v -0.118884 0.006054 0.079410
v -0.118884 -0.006054 0.079410
v 0.118884 -0.006054 0.079410
v 0.118884 -0.006726 -0.071469
v 0.118884 -0.006726 0.071469
v -0.118884 -0.006726 0.071469
v -0.118884 -0.006726 -0.071469
v 0.132093 0.006054 -0.071469
v 0.132093 0.006054 0.071469
v 0.132093 -0.006054 0.071469
v 0.132093 -0.006054 -0.071469
v 0.118884 -0.006054 -0.079410
v 0.128224 -0.006054 -0.077084
v 0.126510 -0.006442 -0.076053
v 0.118884 -0.006529 -0.077084
v 0.128224 -0.006529 -0.071469
v 0.128224 0.006529 -0.071469
v 0.126510 0.006442 -0.076053
v 0.118884 0.006529 -0.077084
v 0.118884 0.006054 -0.079410
v 0.128224 0.006054 -0.077084
v 0.128224 -0.006054 0.077084
v 0.126510 -0.006442 0.076053
v 0.128224 -0.006529 0.071469
v 0.118884 -0.006529 0.077084
v 0.128224 0.006529 0.071469
v 0.126510 0.006442 0.076053
v 0.128224 0.006054 0.077084
v 0.118884 0.006529 0.077084
v -0.118884 -0.006054 -0.079410
v -0.118884 -0.006529 -0.077084
v -0.126510 -0.006442 -0.076053
v -0.128224 -0.006054 -0.077084
v -0.128224 -0.006529 -0.071469
v -0.128224 0.006529 -0.071469
v -0.126510 0.006442 -0.076053
v -0.128224 0.006054 -0.077084
v -0.118884 0.006054 -0.079410
v -0.118884 0.006529 -0.077084
v -0.128224 -0.006529 0.071469
v -0.126510 -0.006442 0.076053
v -0.128224 -0.006054 0.077084
v -0.118884 -0.006529 0.077084
v -0.128224 0.006529 0.071469
v -0.126510 0.006442 0.076053
v -0.118884 0.006529 0.077084
v -0.128224 0.006054 0.077084
vt 0.137500 0.512500
vt 0.137500 0.737500
vt 0.362500 0.737500
vt 0.362500 0.512500
vt 0.387500 0.012500
vt 0.387500 0.237500
vt 0.612500 0.237500
vt 0.612500 0.012500
vt 0.387500 0.762500
vt 0.387500 0.987500
vt 0.612500 0.987500
vt 0.612500 0.762500
vt 0.637500 0.512500
vt 0.637500 0.737500
vt 0.862500 0.737500
vt 0.862500 0.512500
vt 0.387500 0.512500
vt 0.387500 0.737500
vt 0.612500 0.737500
vt 0.612500 0.512500
vt 0.612500 0.487500
vt 0.612500 0.500000
vt 0.623239 0.500000
vt 0.625000 0.487500
vt 0.637500 0.500000
vt 0.625000 0.512500
vt 0.375000 0.512500
vt 0.375000 0.501761
vt 0.362500 0.500000
vt 0.387500 0.487500
vt 0.375000 0.487500
vt 0.387500 0.500000
vt 0.612500 0.750000
vt 0.625000 0.748239
vt 0.625000 0.737500
vt 0.637500 0.750000
vt 0.625000 0.762500
vt 0.375000 0.737500
vt 0.376761 0.750000
vt 0.387500 0.750000
vt 0.375000 0.762500
vt 0.362500 0.750000
vt 0.612500 0.262500
vt 0.625000 0.262500
vt 0.619717 0.250000
vt 0.612500 0.250000
vt 0.625000 0.244717
vt 0.625000 0.237500
vt 0.875000 0.512500
vt 0.869717 0.500000
vt 0.862500 0.500000
vt 0.375000 0.237500
vt 0.380283 0.250000
vt 0.387500 0.250000
vt 0.387500 0.262500
vt 0.375000 0.255283
vt 0.375000 0.262500
vt 0.137500 0.500000
vt 0.125000 0.505283
vt 0.125000 0.512500
vt 0.625000 0.012500
vt 0.619717 0.000000
vt 0.612500 0.000000
vt 0.612500 1.000000
vt 0.625000 0.994717
vt 0.625000 0.987500
vt 0.862500 0.750000
vt 0.875000 0.744717
vt 0.875000 0.737500
vt 0.125000 0.737500
vt 0.130283 0.750000
vt 0.137500 0.750000
vt 0.375000 0.987500
vt 0.380283 1.000000
vt 0.387500 1.000000
vt 0.387500 0.000000
vt 0.375000 0.005283
vt 0.375000 0.012500
vn 0.0000 1.0000 0.0000
vn -1.0000 0.0000 0.0000
vn 0.0000 0.0000 1.0000
vn 0.0000 -1.0000 -0.0000
vn 1.0000 0.0000 0.0000
vn 0.0495 -0.9730 -0.2252
vn 0.0186 -0.9993 -0.0310
vn 0.1372 -0.9870 -0.0835
vn 0.0186 0.9993 -0.0310
vn 0.0495 0.9730 -0.2252
vn 0.1372 0.9870 -0.0835
vn 0.1372 -0.9870 0.0835
vn 0.0186 -0.9993 0.0310
vn 0.0495 -0.9730 0.2252
vn 0.1372 0.9870 0.0835
vn 0.0495 0.9730 0.2252
vn 0.0186 0.9993 0.0310
vn -0.0495 -0.9730 -0.2252
vn -0.1372 -0.9870 -0.0835
vn -0.0186 -0.9993 -0.0310
vn -0.1372 0.9870 -0.0835
vn -0.0495 0.9730 -0.2252
vn -0.0186 0.9993 -0.0310
vn -0.1372 -0.9870 0.0835
vn -0.0495 -0.9730 0.2252
vn -0.0186 -0.9993 0.0310
vn -0.0186 0.9993 0.0310
vn -0.0495 0.9730 0.2252
vn -0.1372 0.9870 0.0835
vn -0.0211 0.9998 0.0000
vn -0.1219 0.9925 0.0000
vn 0.0000 0.9994 -0.0351
vn 0.0000 0.9798 -0.2001
vn 0.8234 0.0000 -0.5674
vn 0.2417 0.0000 -0.9704
vn -0.2417 0.0000 0.9704
vn -0.8234 0.0000 0.5674
vn 0.2417 0.0000 0.9704
vn 0.8234 0.0000 0.5674
vn -0.2417 0.0000 -0.9704
vn -0.8234 0.0000 -0.5674
vn 0.0000 -0.9994 0.0351
vn 0.0000 -0.9798 0.2001
vn 0.0211 -0.9998 -0.0000
vn 0.1219 -0.9925 -0.0000
vn 0.0000 0.9994 0.0351
vn 0.0000 0.9798 0.2001
vn -0.0211 -0.9998 -0.0000
vn -0.1219 -0.9925 -0.0000
vn 0.0000 -0.9994 -0.0351
vn 0.0000 -0.9798 -0.2001
vn 0.0211 0.9998 0.0000
vn 0.1219 0.9925 0.0000
vn 0.0000 0.0000 -1.0000
usemtl Material.001
s 1
f 1/1/1 2/2/1 3/3/1 4/4/1
f 5/5/2 6/6/2 7/7/2 8/8/2
f 9/9/3 10/10/3 11/11/3 12/12/3
f 13/13/4 14/14/4 15/15/4 16/16/4
f 17/17/5 18/18/5 19/19/5 20/20/5
f 21/21/6 22/22/6 23/23/6 24/24/6
f 13/13/7 24/25/7 23/23/7 25/26/7
f 20/20/8 25/26/8 23/23/8 22/22/8
f 4/4/9 26/27/9 27/28/9 28/29/9
f 29/30/10 28/31/10 27/28/10 30/32/10
f 17/17/11 30/32/11 27/28/11 26/27/11
f 19/19/12 31/33/12 32/34/12 33/35/12
f 14/14/13 33/35/13 32/34/13 34/36/13
f 12/12/14 34/37/14 32/34/14 31/33/14
f 18/18/15 35/38/15 36/39/15 37/40/15
f 9/9/16 37/40/16 36/39/16 38/41/16
f 3/3/17 38/42/17 36/39/17 35/38/17
f 39/43/18 40/44/18 41/45/18 42/46/18
f 7/7/19 42/46/19 41/47/19 43/48/19
f 16/16/20 43/49/20 41/50/20 40/51/20
f 6/6/21 44/52/21 45/53/21 46/54/21
f 47/55/22 46/54/22 45/56/22 48/57/22
f 1/1/23 48/58/23 45/59/23 44/60/23
f 8/8/24 49/61/24 50/62/24 51/63/24
f 11/11/25 51/64/25 50/65/25 52/66/25
f 15/15/26 52/67/26 50/68/26 49/69/26
f 2/2/27 53/70/27 54/71/27 55/72/27
f 10/10/28 55/73/28 54/74/28 56/75/28
f 5/5/29 56/76/29 54/77/29 53/78/29
f 1/1/30 44/60/30 53/70/30 2/2/30
f 44/52/31 6/6/31 5/5/31 53/78/31
f 4/4/32 28/29/32 48/58/32 1/1/32
f 28/31/33 29/30/33 47/55/33 48/57/33
f 20/20/34 22/22/34 30/32/34 17/17/34
f 22/22/35 21/21/35 29/30/35 30/32/35
f 10/10/36 56/75/36 51/64/36 11/11/36
f 56/76/37 5/5/37 8/8/37 51/63/37
f 12/12/38 31/33/38 37/40/38 9/9/38
f 31/33/39 19/19/39 18/18/39 37/40/39
f 39/43/40 42/46/40 46/54/40 47/55/40
f 42/46/41 7/7/41 6/6/41 46/54/41
f 14/14/42 34/36/42 52/67/42 15/15/42
f 34/37/43 12/12/43 11/11/43 52/66/43
f 13/13/44 25/26/44 33/35/44 14/14/44
f 25/26/45 20/20/45 19/19/45 33/35/45
f 2/2/46 55/72/46 38/42/46 3/3/46
f 55/73/47 10/10/47 9/9/47 38/41/47
f 15/15/48 49/69/48 43/49/48 16/16/48
f 49/61/49 8/8/49 7/7/49 43/48/49
f 16/16/50 40/51/50 24/25/50 13/13/50
f 40/44/51 39/43/51 21/21/51 24/24/51
f 3/3/52 35/38/52 26/27/52 4/4/52
f 35/38/53 18/18/53 17/17/53 26/27/53
f 47/55/54 29/30/54 21/21/54 39/43/54
o Cube_Cube.005
v -0.038810 0.001055 0.039834
v -0.038810 0.017024 0.039834
v -0.038810 0.001055 -0.039834
v -0.038810 0.017024 -0.039834
v 0.038810 0.001055 0.039834
v 0.038810 0.017024 0.039834
v 0.038810 0.001055 -0.039834
v 0.038810 0.017024 -0.039834
v -0.044471 -0.000110 -0.023634
v -0.047314 -0.000695 -0.000000
v -0.044471 -0.000110 0.023634
v -0.044471 0.004302 0.045645
v -0.047314 0.009039 0.048564
v -0.044471 0.013776 0.045645
v -0.044471 0.018189 0.023634
v -0.047314 0.018774 0.000000
v -0.044471 0.018189 -0.023634
v -0.044471 0.013776 -0.045645
v -0.047314 0.009039 -0.048564
v -0.044471 0.004302 -0.045645
v 0.023026 -0.000110 -0.045645
v 0.000000 -0.000695 -0.048564
v -0.023026 -0.000110 -0.045645
v -0.023026 0.018189 -0.045645
v -0.000000 0.018774 -0.048564
v 0.023026 0.018189 -0.045645
v 0.044471 0.013776 -0.045645
v 0.047314 0.009039 -0.048564
v 0.044471 0.004302 -0.045645
v 0.044471 -0.000110 0.023634
v 0.047314 -0.000695 0.000000
v 0.044471 -0.000110 -0.023634
v 0.044471 0.018189 -0.023634
v 0.047314 0.018774 0.000000
v 0.044471 0.018189 0.023634
v 0.044471 0.013776 0.045645
v 0.047314 0.009039 0.048564
v 0.044471 0.004302 0.045645
v -0.023026 -0.000110 0.045645
v -0.000000 -0.000695 0.048564
v 0.023026 -0.000110 0.045645
v 0.023026 0.018189 0.045645
v -0.000000 0.018774 0.048564
v -0.023026 0.018189 0.045645
v -0.056584 0.003990 0.025188
v -0.060685 0.009039 0.026541
v -0.056584 0.014088 0.025188
v -0.060685 0.003719 -0.000000
v -0.065162 0.009039 0.000000
v -0.060685 0.014359 0.000000
v -0.056584 0.003990 -0.025188
v -0.060685 0.009039 -0.026541
v -0.056584 0.014088 -0.025188
v -0.024540 0.003990 -0.058078
v -0.025858 0.009039 -0.062287
v -0.024540 0.014088 -0.058078
v 0.000000 0.003719 -0.062287
v 0.000000 0.009039 -0.066882
v -0.000000 0.014359 -0.062287
v 0.024540 0.003990 -0.058078
v 0.025858 0.009039 -0.062287
v 0.024540 0.014088 -0.058078
v 0.056584 0.003990 -0.025188
v 0.060685 0.009039 -0.026541
v 0.056584 0.014088 -0.025188
v 0.060685 0.003719 0.000000
v 0.065162 0.009039 0.000000
v 0.060685 0.014359 -0.000000
v 0.056584 0.003990 0.025188
v 0.060685 0.009039 0.026541
v 0.056584 0.014088 0.025188
v 0.024540 0.003990 0.058078
v 0.025858 0.009039 0.062287
v 0.024540 0.014088 0.058078
v -0.000000 0.003719 0.062287
v -0.000000 0.009039 0.066882
v 0.000000 0.014359 0.062287
v -0.024540 0.003990 0.058078
v -0.025858 0.009039 0.062287
v -0.024540 0.014088 0.058078
v -0.024540 -0.002602 -0.025188
v -0.000000 -0.003446 -0.026541
v 0.024540 -0.002602 -0.025188
v -0.025858 -0.003446 0.000000
v 0.000000 -0.004367 0.000000
v 0.025858 -0.003446 -0.000000
v -0.024540 -0.002602 0.025188
v 0.000000 -0.003446 0.026541
v 0.024540 -0.002602 0.025188
v 0.024540 0.020681 -0.025188
v 0.000000 0.021524 -0.026541
v -0.024540 0.020681 -0.025188
v 0.025858 0.021524 0.000000
v -0.000000 0.022446 0.000000
v -0.025858 0.021524 -0.000000
v 0.024540 0.020681 0.025188
v -0.000000 0.021524 0.026541
v -0.024540 0.020681 0.025188
vt 0.437500 0.062500
vt 0.500000 0.062500
vt 0.500000 0.125000
vt 0.437500 0.125000
vt 0.562500 0.062500
vt 0.562500 0.125000
vt 0.500000 0.187500
vt 0.437500 0.187500
vt 0.562500 0.187500
vt 0.375000 0.000000
vt 0.437500 0.000000
vt 0.375000 0.062500
vt 0.500000 0.000000
vt 0.562500 0.000000
vt 0.625000 0.000000
vt 0.625000 0.062500
vt 0.625000 0.125000
vt 0.625000 0.187500
vt 0.625000 0.250000
vt 0.562500 0.250000
vt 0.500000 0.250000
vt 0.437500 0.250000
vt 0.375000 0.187500
vt 0.375000 0.250000
vt 0.375000 0.125000
vt 0.437500 0.312500
vt 0.500000 0.312500
vt 0.500000 0.375000
vt 0.437500 0.375000
vt 0.562500 0.312500
vt 0.562500 0.375000
vt 0.500000 0.437500
vt 0.437500 0.437500
vt 0.562500 0.437500
vt 0.375000 0.312500
vt 0.625000 0.312500
vt 0.625000 0.375000
vt 0.625000 0.437500
vt 0.625000 0.500000
vt 0.562500 0.500000
vt 0.500000 0.500000
vt 0.437500 0.500000
vt 0.375000 0.437500
vt 0.375000 0.500000
vt 0.375000 0.375000
vt 0.437500 0.562500
vt 0.500000 0.562500
vt 0.500000 0.625000
vt 0.437500 0.625000
vt 0.562500 0.562500
vt 0.562500 0.625000
vt 0.500000 0.687500
vt 0.437500 0.687500
vt 0.562500 0.687500
vt 0.375000 0.562500
vt 0.625000 0.562500
vt 0.625000 0.625000
vt 0.625000 0.687500
vt 0.625000 0.750000
vt 0.562500 0.750000
vt 0.500000 0.750000
vt 0.437500 0.750000
vt 0.375000 0.687500
vt 0.375000 0.750000
vt 0.375000 0.625000
vt 0.437500 0.812500
vt 0.500000 0.812500
vt 0.500000 0.875000
vt 0.437500 0.875000
vt 0.562500 0.812500
vt 0.562500 0.875000
vt 0.500000 0.937500
vt 0.437500 0.937500
vt 0.562500 0.937500
vt 0.375000 0.812500
vt 0.625000 0.812500
vt 0.625000 0.875000
vt 0.625000 0.937500
vt 0.625000 1.000000
vt 0.562500 1.000000
vt 0.500000 1.000000
vt 0.437500 1.000000
vt 0.375000 0.937500
vt 0.375000 1.000000
vt 0.375000 0.875000
vt 0.187500 0.562500
vt 0.250000 0.562500
vt 0.250000 0.625000
vt 0.187500 0.625000
vt 0.312500 0.562500
vt 0.312500 0.625000
vt 0.250000 0.687500
vt 0.187500 0.687500
vt 0.312500 0.687500
vt 0.125000 0.500000
vt 0.187500 0.500000
vt 0.125000 0.562500
vt 0.250000 0.500000
vt 0.312500 0.500000
vt 0.312500 0.750000
vt 0.250000 0.750000
vt 0.187500 0.750000
vt 0.125000 0.687500
vt 0.125000 0.750000
vt 0.125000 0.625000
vt 0.687500 0.562500
vt 0.750000 0.562500
vt 0.750000 0.625000
vt 0.687500 0.625000
vt 0.812500 0.562500
vt 0.812500 0.625000
vt 0.750000 0.687500
vt 0.687500 0.687500
vt 0.812500 0.687500
vt 0.687500 0.500000
vt 0.750000 0.500000
vt 0.812500 0.500000
vt 0.875000 0.500000
vt 0.875000 0.562500
vt 0.875000 0.625000
vt 0.875000 0.687500
vt 0.875000 0.750000
vt 0.812500 0.750000
vt 0.750000 0.750000
vt 0.687500 0.750000
vn -0.7558 -0.6421 0.1287
vn -0.7558 0.6421 0.1287
vn -0.7558 -0.6421 -0.1287
vn -0.7558 0.6421 -0.1287
vn -0.3081 -0.9328 0.1870
vn -0.6567 -0.6401 0.3987
vn -0.6568 0.6401 0.3987
vn -0.3081 0.9328 0.1870
vn -0.3130 0.9478 0.0611
vn -0.3130 0.9478 -0.0611
vn -0.3081 0.9328 -0.1870
vn -0.6567 0.6401 -0.3987
vn -0.6568 -0.6401 -0.3987
vn -0.3081 -0.9328 -0.1870
vn -0.3130 -0.9478 -0.0611
vn -0.3130 -0.9478 0.0611
vn -0.1340 -0.6513 -0.7469
vn -0.1340 0.6513 -0.7469
vn 0.1340 -0.6513 -0.7469
vn 0.1340 0.6513 -0.7469
vn -0.1922 -0.9342 -0.3007
vn -0.4120 -0.6444 -0.6442
vn -0.4120 0.6444 -0.6442
vn -0.1922 0.9342 -0.3007
vn -0.0629 0.9501 -0.3056
vn 0.0629 0.9501 -0.3056
vn 0.1922 0.9342 -0.3007
vn 0.4120 0.6444 -0.6442
vn 0.4120 -0.6444 -0.6442
vn 0.1922 -0.9342 -0.3007
vn 0.0629 -0.9501 -0.3056
vn -0.0629 -0.9501 -0.3056
vn 0.7558 -0.6421 -0.1287
vn 0.7558 0.6421 -0.1287
vn 0.7558 -0.6421 0.1287
vn 0.7558 0.6421 0.1287
vn 0.3081 -0.9328 -0.1870
vn 0.6567 -0.6401 -0.3987
vn 0.6568 0.6401 -0.3987
vn 0.3081 0.9328 -0.1870
vn 0.3130 0.9478 -0.0611
vn 0.3130 0.9478 0.0611
vn 0.3081 0.9328 0.1870
vn 0.6567 0.6401 0.3987
vn 0.6567 -0.6401 0.3987
vn 0.3081 -0.9328 0.1870
vn 0.3130 -0.9478 0.0611
vn 0.3130 -0.9478 -0.0611
vn 0.1340 -0.6513 0.7469
vn 0.1340 0.6513 0.7469
vn -0.1340 -0.6513 0.7469
vn -0.1340 0.6513 0.7469
vn 0.1922 -0.9342 0.3007
vn 0.4120 -0.6444 0.6442
vn 0.4120 0.6444 0.6442
vn 0.1922 0.9342 0.3007
vn 0.0629 0.9501 0.3056
vn -0.0629 0.9501 0.3056
vn -0.1922 0.9342 0.3007
vn -0.4120 0.6444 0.6442
vn -0.4120 -0.6444 0.6442
vn -0.1922 -0.9342 0.3007
vn -0.0629 -0.9501 0.3056
vn 0.0629 -0.9501 0.3056
vn -0.0359 -0.9987 -0.0350
vn 0.0359 -0.9987 -0.0350
vn -0.0359 -0.9987 0.0350
vn 0.0359 -0.9987 0.0350
vn -0.1261 -0.9844 -0.1229
vn -0.0409 -0.9915 -0.1238
vn 0.0409 -0.9915 -0.1238
vn 0.1261 -0.9844 -0.1229
vn 0.1271 -0.9911 -0.0398
vn 0.1271 -0.9911 0.0398
vn 0.1261 -0.9844 0.1229
vn 0.0409 -0.9915 0.1238
vn -0.0409 -0.9915 0.1238
vn -0.1261 -0.9844 0.1229
vn -0.1271 -0.9911 0.0398
vn -0.1271 -0.9911 -0.0398
vn 0.0359 0.9987 -0.0350
vn -0.0359 0.9987 -0.0350
vn 0.0359 0.9987 0.0350
vn -0.0359 0.9987 0.0350
vn 0.1261 0.9844 -0.1229
vn 0.0409 0.9915 -0.1238
vn -0.0409 0.9915 -0.1238
vn -0.1261 0.9844 -0.1229
vn -0.1271 0.9911 -0.0398
vn -0.1271 0.9911 0.0398
vn -0.1261 0.9844 0.1229
vn -0.0409 0.9915 0.1238
vn 0.0409 0.9915 0.1238
vn 0.1261 0.9844 0.1229
vn 0.1271 0.9911 0.0398
vn 0.1271 0.9911 -0.0398
usemtl Material.004
s off
f 101/79/55 102/80/55 105/81/55 104/82/55
f 102/80/56 103/83/56 106/84/56 105/81/56
f 104/82/57 105/81/57 108/85/57 107/86/57
f 105/81/58 106/84/58 109/87/58 108/85/58
f 57/88/59 68/89/59 101/79/59 67/90/59
f 68/89/60 69/91/60 102/80/60 101/79/60
f 69/91/61 70/92/61 103/83/61 102/80/61
f 70/92/62 58/93/62 71/94/62 103/83/62
f 103/83/63 71/94/63 72/95/63 106/84/63
f 106/84/64 72/95/64 73/96/64 109/87/64
f 109/87/65 73/96/65 60/97/65 74/98/65
f 108/85/66 109/87/66 74/98/66 75/99/66
f 107/86/67 108/85/67 75/99/67 76/100/67
f 65/101/68 107/86/68 76/100/68 59/102/68
f 66/103/69 104/82/69 107/86/69 65/101/69
f 67/90/70 101/79/70 104/82/70 66/103/70
f 110/104/71 111/105/71 114/106/71 113/107/71
f 111/105/72 112/108/72 115/109/72 114/106/72
f 113/107/73 114/106/73 117/110/73 116/111/73
f 114/106/74 115/109/74 118/112/74 117/110/74
f 59/102/75 76/100/75 110/104/75 79/113/75
f 76/100/76 75/99/76 111/105/76 110/104/76
f 75/99/77 74/98/77 112/108/77 111/105/77
f 74/98/78 60/97/78 80/114/78 112/108/78
f 112/108/79 80/114/79 81/115/79 115/109/79
f 115/109/80 81/115/80 82/116/80 118/112/80
f 118/112/81 82/116/81 64/117/81 83/118/81
f 117/110/82 118/112/82 83/118/82 84/119/82
f 116/111/83 117/110/83 84/119/83 85/120/83
f 77/121/84 116/111/84 85/120/84 63/122/84
f 78/123/85 113/107/85 116/111/85 77/121/85
f 79/113/86 110/104/86 113/107/86 78/123/86
f 119/124/87 120/125/87 123/126/87 122/127/87
f 120/125/88 121/128/88 124/129/88 123/126/88
f 122/127/89 123/126/89 126/130/89 125/131/89
f 123/126/90 124/129/90 127/132/90 126/130/90
f 63/122/91 85/120/91 119/124/91 88/133/91
f 85/120/92 84/119/92 120/125/92 119/124/92
f 84/119/93 83/118/93 121/128/93 120/125/93
f 83/118/94 64/117/94 89/134/94 121/128/94
f 121/128/95 89/134/95 90/135/95 124/129/95
f 124/129/96 90/135/96 91/136/96 127/132/96
f 127/132/97 91/136/97 62/137/97 92/138/97
f 126/130/98 127/132/98 92/138/98 93/139/98
f 125/131/99 126/130/99 93/139/99 94/140/99
f 86/141/100 125/131/100 94/140/100 61/142/100
f 87/143/101 122/127/101 125/131/101 86/141/101
f 88/133/102 119/124/102 122/127/102 87/143/102
f 128/144/103 129/145/103 132/146/103 131/147/103
f 129/145/104 130/148/104 133/149/104 132/146/104
f 131/147/105 132/146/105 135/150/105 134/151/105
f 132/146/106 133/149/106 136/152/106 135/150/106
f 61/142/107 94/140/107 128/144/107 97/153/107
f 94/140/108 93/139/108 129/145/108 128/144/108
f 93/139/109 92/138/109 130/148/109 129/145/109
f 92/138/110 62/137/110 98/154/110 130/148/110
f 130/148/111 98/154/111 99/155/111 133/149/111
f 133/149/112 99/155/112 100/156/112 136/152/112
f 136/152/113 100/156/113 58/157/113 70/158/113
f 135/150/114 136/152/114 70/158/114 69/159/114
f 134/151/115 135/150/115 69/159/115 68/160/115
f 95/161/116 134/151/116 68/160/116 57/162/116
f 96/163/117 131/147/117 134/151/117 95/161/117
f 97/153/118 128/144/118 131/147/118 96/163/118
f 137/164/119 138/165/119 141/166/119 140/167/119
f 138/165/120 139/168/120 142/169/120 141/166/120
f 140/167/121 141/166/121 144/170/121 143/171/121
f 141/166/122 142/169/122 145/172/122 144/170/122
f 59/173/123 79/174/123 137/164/123 65/175/123
f 79/174/124 78/176/124 138/165/124 137/164/124
f 78/176/125 77/177/125 139/168/125 138/165/125
f 77/177/126 63/122/126 88/133/126 139/168/126
f 139/168/127 88/133/127 87/143/127 142/169/127
f 142/169/128 87/143/128 86/141/128 145/172/128
f 145/172/129 86/141/129 61/142/129 97/178/129
f 144/170/130 145/172/130 97/178/130 96/179/130
f 143/171/131 144/170/131 96/179/131 95/180/131
f 67/181/132 143/171/132 95/180/132 57/182/132
f 66/183/133 140/167/133 143/171/133 67/181/133
f 65/175/134 137/164/134 140/167/134 66/183/134
f 146/184/135 147/185/135 150/186/135 149/187/135
f 147/185/136 148/188/136 151/189/136 150/186/136
f 149/187/137 150/186/137 153/190/137 152/191/137
f 150/186/138 151/189/138 154/192/138 153/190/138
f 64/117/139 82/193/139 146/184/139 89/134/139
f 82/193/140 81/194/140 147/185/140 146/184/140
f 81/194/141 80/195/141 148/188/141 147/185/141
f 80/195/142 60/196/142 73/197/142 148/188/142
f 148/188/143 73/197/143 72/198/143 151/189/143
f 151/189/144 72/198/144 71/199/144 154/192/144
f 154/192/145 71/199/145 58/200/145 100/201/145
f 153/190/146 154/192/146 100/201/146 99/202/146
f 152/191/147 153/190/147 99/202/147 98/203/147
f 91/136/148 152/191/148 98/203/148 62/137/148
f 90/135/149 149/187/149 152/191/149 91/136/149
f 89/134/150 146/184/150 149/187/150 90/135/150
