# Blender v2.93.6 OBJ File: ''
# www.blender.org
mtllib untitled.mtl
o Cube
v 0.118884 -0.006054 -0.079410
v 0.118884 -0.006726 -0.071469
v 0.132093 -0.006054 -0.071469
v 0.118884 -0.006529 -0.077084
v 0.126510 -0.006442 -0.076053
v 0.128224 -0.006529 -0.071469
v 0.128224 -0.006054 -0.077084
v 0.118884 0.006726 -0.071469
v 0.118884 0.006054 -0.079410
v 0.132093 0.006054 -0.071469
v 0.118884 0.006529 -0.077084
v 0.126510 0.006442 -0.076053
v 0.128224 0.006054 -0.077084
v 0.128224 0.006529 -0.071469
v 0.132093 -0.006054 0.071469
v 0.118884 -0.006726 0.071469
v 0.118884 -0.006054 0.079410
v 0.128224 -0.006529 0.071469
v 0.126510 -0.006442 0.076053
v 0.118884 -0.006529 0.077084
v 0.128224 -0.006054 0.077084
v 0.132093 0.006054 0.071469
v 0.118884 0.006054 0.079410
v 0.118884 0.006726 0.071469
v 0.128224 0.006054 0.077084
v 0.126510 0.006442 0.076053
v 0.118884 0.006529 0.077084
v 0.128224 0.006529 0.071469
v -0.118884 -0.006054 -0.079410
v -0.132093 -0.006054 -0.071469
v -0.118884 -0.006726 -0.071469
v -0.128224 -0.006054 -0.077084
v -0.126510 -0.006442 -0.076053
v -0.128224 -0.006529 -0.071469
v -0.118884 -0.006529 -0.077084
v -0.132093 0.006054 -0.071469
v -0.118884 0.006054 -0.079410
v -0.118884 0.006726 -0.071469
v -0.128224 0.006054 -0.077084
v -0.126510 0.006442 -0.076053
v -0.118884 0.006529 -0.077084
v -0.128224 0.006529 -0.071469
v -0.132093 -0.006054 0.071469
v -0.118884 -0.006054 0.079410
v -0.118884 -0.006726 0.071469
v -0.128224 -0.006054 0.077084
v -0.126510 -0.006442 0.076053
v -0.118884 -0.006529 0.077084
v -0.128224 -0.006529 0.071469
v -0.118884 0.006726 0.071469
v -0.118884 0.006054 0.079410
v -0.132093 0.006054 0.071469
v -0.118884 0.006529 0.077084
v -0.126510 0.006442 0.076053
v -0.128224 0.006054 0.077084
v -0.128224 0.006529 0.071469
vt 0.137500 0.512500
vt 0.137500 0.737500
vt 0.362500 0.737500
vt 0.362500 0.512500
vt 0.387500 0.012500
vt 0.387500 0.237500
vt 0.612500 0.237500
vt 0.612500 0.012500
vt 0.387500 0.762500
vt 0.387500 0.987500
vt 0.612500 0.987500
vt 0.612500 0.762500
vt 0.637500 0.512500
vt 0.637500 0.737500
vt 0.862500 0.737500
vt 0.862500 0.512500
vt 0.387500 0.512500
vt 0.387500 0.737500
vt 0.612500 0.737500
vt 0.612500 0.512500
vt 0.612500 0.487500
vt 0.612500 0.500000
vt 0.623239 0.500000
vt 0.625000 0.487500
vt 0.637500 0.500000
vt 0.625000 0.512500
vt 0.375000 0.512500
vt 0.375000 0.501761
vt 0.362500 0.500000
vt 0.387500 0.487500
vt 0.375000 0.487500
vt 0.387500 0.500000
vt 0.612500 0.750000
vt 0.625000 0.748239
vt 0.625000 0.737500
vt 0.637500 0.750000
vt 0.625000 0.762500
vt 0.375000 0.737500
vt 0.376761 0.750000
vt 0.387500 0.750000
vt 0.375000 0.762500
vt 0.362500 0.750000
vt 0.612500 0.262500
vt 0.625000 0.262500
vt 0.619717 0.250000
vt 0.612500 0.250000
vt 0.625000 0.244717
vt 0.625000 0.237500
vt 0.875000 0.512500
vt 0.869717 0.500000
vt 0.862500 0.500000
vt 0.375000 0.237500
vt 0.380283 0.250000
vt 0.387500 0.250000
vt 0.387500 0.262500
vt 0.375000 0.255283
vt 0.375000 0.262500
vt 0.137500 0.500000
vt 0.125000 0.505283
vt 0.125000 0.512500
vt 0.625000 0.012500
vt 0.619717 0.000000
vt 0.612500 0.000000
vt 0.612500 1.000000
vt 0.625000 0.994717
vt 0.625000 0.987500
vt 0.862500 0.750000
vt 0.875000 0.744717
vt 0.875000 0.737500
vt 0.125000 0.737500
vt 0.130283 0.750000
vt 0.137500 0.750000
vt 0.375000 0.987500
vt 0.380283 1.000000
vt 0.387500 1.000000
vt 0.387500 0.000000
vt 0.375000 0.005283
vt 0.375000 0.012500
vn 0.0000 1.0000 0.0000
vn -1.0000 0.0000 0.0000
vn 0.0000 0.0000 1.0000
vn 0.0000 -1.0000 0.0000
vn 1.0000 0.0000 0.0000
vn 0.0495 -0.9731 -0.2252
vn 0.0186 -0.9993 -0.0310
vn 0.1373 -0.9870 -0.0836
vn 0.0186 0.9993 -0.0310
vn 0.0495 0.9731 -0.2252
vn 0.1373 0.9870 -0.0836
vn 0.1373 -0.9870 0.0836
vn 0.0186 -0.9993 0.0310
vn 0.0495 -0.9731 0.2252
vn 0.1373 0.9870 0.0836
vn 0.0495 0.9731 0.2252
vn 0.0186 0.9993 0.0310
vn -0.0495 -0.9731 -0.2252
vn -0.1373 -0.9870 -0.0836
vn -0.0186 -0.9993 -0.0310
vn -0.1373 0.9870 -0.0836
vn -0.0495 0.9731 -0.2252
vn -0.0186 0.9993 -0.0310
vn -0.1373 -0.9870 0.0836
vn -0.0495 -0.9731 0.2252
vn -0.0186 -0.9993 0.0310
vn -0.0186 0.9993 0.0310
vn -0.0495 0.9731 0.2252
vn -0.1373 0.9870 0.0836
vn -0.0211 0.9998 0.0000
vn -0.1220 0.9925 0.0000
vn 0.0000 0.9994 -0.0351
vn 0.0000 0.9797 -0.2003
vn 0.8235 0.0000 -0.5674
vn 0.2416 0.0000 -0.9704
vn -0.2416 0.0000 0.9704
vn -0.8235 0.0000 0.5674
vn 0.2416 0.0000 0.9704
vn 0.8235 0.0000 0.5674
vn -0.2416 0.0000 -0.9704
vn -0.8235 0.0000 -0.5674
vn 0.0000 -0.9994 0.0351
vn 0.0000 -0.9797 0.2003
vn 0.0211 -0.9998 0.0000
vn 0.1220 -0.9925 0.0000
vn 0.0000 0.9994 0.0351
vn 0.0000 0.9797 0.2003
vn -0.0211 -0.9998 0.0000
vn -0.1220 -0.9925 0.0000
vn 0.0000 -0.9994 -0.0351
vn 0.0000 -0.9797 -0.2003
vn 0.0211 0.9998 0.0000
vn 0.1220 0.9925 0.0000
vn 0.0000 0.0000 -1.0000
usemtl Material
s off
f 38/1/1 50/2/1 24/3/1 8/4/1
f 52/5/2 36/6/2 30/7/2 43/8/2
f 23/9/3 51/10/3 44/11/3 17/12/3
f 2/13/4 16/14/4 45/15/4 31/16/4
f 10/17/5 22/18/5 15/19/5 3/20/5
f 1/21/6 7/22/6 5/23/6 4/24/6
f 2/13/7 4/25/7 5/23/7 6/26/7
f 3/20/8 6/26/8 5/23/8 7/22/8
f 8/4/9 14/27/9 12/28/9 11/29/9
f 9/30/10 11/31/10 12/28/10 13/32/10
f 10/17/11 13/32/11 12/28/11 14/27/11
f 15/19/12 21/33/12 19/34/12 18/35/12
f 16/14/13 18/35/13 19/34/13 20/36/13
f 17/12/14 20/37/14 19/34/14 21/33/14
f 22/18/15 28/38/15 26/39/15 25/40/15
f 23/9/16 25/40/16 26/39/16 27/41/16
f 24/3/17 27/42/17 26/39/17 28/38/17
f 29/43/18 35/44/18 33/45/18 32/46/18
f 30/7/19 32/46/19 33/47/19 34/48/19
f 31/16/20 34/49/20 33/50/20 35/51/20
f 36/6/21 42/52/21 40/53/21 39/54/21
f 37/55/22 39/54/22 40/56/22 41/57/22
f 38/1/23 41/58/23 40/59/23 42/60/23
f 43/8/24 49/61/24 47/62/24 46/63/24
f 44/11/25 46/64/25 47/65/25 48/66/25
f 45/15/26 48/67/26 47/68/26 49/69/26
f 50/2/27 56/70/27 54/71/27 53/72/27
f 51/10/28 53/73/28 54/74/28 55/75/28
f 52/5/29 55/76/29 54/77/29 56/78/29
f 38/1/30 42/60/30 56/70/30 50/2/30
f 42/52/31 36/6/31 52/5/31 56/78/31
f 8/4/32 11/29/32 41/58/32 38/1/32
f 11/31/33 9/30/33 37/55/33 41/57/33
f 3/20/34 7/22/34 13/32/34 10/17/34
f 7/22/35 1/21/35 9/30/35 13/32/35
f 51/10/36 55/75/36 46/64/36 44/11/36
f 55/76/37 52/5/37 43/8/37 46/63/37
f 17/12/38 21/33/38 25/40/38 23/9/38
f 21/33/39 15/19/39 22/18/39 25/40/39
f 29/43/40 32/46/40 39/54/40 37/55/40
f 32/46/41 30/7/41 36/6/41 39/54/41
f 16/14/42 20/36/42 48/67/42 45/15/42
f 20/37/43 17/12/43 44/11/43 48/66/43
f 2/13/44 6/26/44 18/35/44 16/14/44
f 6/26/45 3/20/45 15/19/45 18/35/45
f 50/2/46 53/72/46 27/42/46 24/3/46
f 53/73/47 51/10/47 23/9/47 27/41/47
f 45/15/48 49/69/48 34/49/48 31/16/48
f 49/61/49 43/8/49 30/7/49 34/48/49
f 31/16/50 35/51/50 4/25/50 2/13/50
f 35/44/51 29/43/51 1/21/51 4/24/51
f 24/3/52 28/38/52 14/27/52 8/4/52
f 28/38/53 22/18/53 10/17/53 14/27/53
f 37/55/54 9/30/54 1/21/54 29/43/54
o Cube.001
v -0.058099 -0.011150 0.055371
v -0.058099 0.002299 0.055371
v -0.058099 -0.011150 -0.055371
v -0.058099 0.002299 -0.055371
v 0.058099 -0.011150 0.055371
v 0.058099 0.002299 0.055371
v 0.058099 -0.011150 -0.055371
v 0.058099 0.002299 -0.055371
vt 0.375000 0.000000
vt 0.625000 0.000000
vt 0.625000 0.250000
vt 0.375000 0.250000
vt 0.625000 0.500000
vt 0.375000 0.500000
vt 0.625000 0.750000
vt 0.375000 0.750000
vt 0.625000 1.000000
vt 0.375000 1.000000
vt 0.125000 0.500000
vt 0.125000 0.750000
vt 0.875000 0.500000
vt 0.875000 0.750000
vn -1.0000 0.0000 0.0000
vn 0.0000 0.0000 -1.0000
vn 1.0000 0.0000 0.0000
vn 0.0000 0.0000 1.0000
vn 0.0000 -1.0000 0.0000
vn 0.0000 1.0000 0.0000
usemtl Material.001
s off
f 57/79/55 58/80/55 60/81/55 59/82/55
f 59/82/56 60/81/56 64/83/56 63/84/56
f 63/84/57 64/83/57 62/85/57 61/86/57
f 61/86/58 62/85/58 58/87/58 57/88/58
f 59/89/59 63/84/59 61/86/59 57/90/59
f 64/83/60 60/91/60 58/92/60 62/85/60
