# ProBuilder 4.5.2
# https://unity3d.com/unity/features/worldbuilding/probuilder
# 22/02/2023 11:01:21

mtllib ./LevelMapPrototype.mtl
o LevelMapPrototype

g New Game Object
v -60 5 39
v -60 5 60
v -58 5 60
v -58 5 39
v -60 0 39
v -58 0 39
v -58 0 60
v -60 0 60
v -54 5 60
v -54 5 39
v -39 5 60
v -39 5 39
v -54 0 39
v -54 0 60
v -39 0 39
v -39 0 60
v -39 4 60
v -39 4 39
v -60 4 39
v -60 4 60
v -58 4 39
v -58 4 60
v -54 4 39
v -54 4 60

vt 0 -21
vt 0 0
vt 2 0
vt 2 -21
vt -2 -21
vt -2 0
vt 6 0
vt 6 -21
vt 21 0
vt 21 -21
vt -6 -21
vt -6 0
vt -21 -21
vt -21 0
vt -21 5
vt 0 5
vt 0 4
vt -21 4
vt 21 5
vt 21 4
vt 2 4
vt 2 5
vt -2 4
vt -2 5
vt 6 4
vt 6 5
vt -6 4
vt -6 5

vn 0 -1 0
vn 0 1 0
vn -1 0 0
vn 1 0 0
vn 0 0 1
vn 0 0 -1

usemtl ProBuilderDefault
f 4/4/1 3/3/1 2/2/1 1/1/1
f 8/2/2 7/6/2 6/5/2 5/1/2
f 10/8/1 9/7/1 3/3/1 4/4/1
f 12/10/1 11/9/1 9/7/1 10/8/1
f 7/6/2 14/12/2 13/11/2 6/5/2
f 14/12/2 16/14/2 15/13/2 13/11/2
f 11/16/3 12/15/3 18/18/3 17/17/3
f 17/17/3 18/18/3 15/14/3 16/2/3
f 19/20/4 1/19/4 2/16/4 20/17/4
f 5/9/4 19/20/4 20/17/4 8/2/4
f 21/21/5 19/17/5 5/2/5 6/3/5
f 4/22/5 1/16/5 19/17/5 21/21/5
f 8/2/6 20/17/6 22/23/6 7/6/6
f 20/17/6 2/16/6 3/24/6 22/23/6
f 18/20/5 23/25/5 13/7/5 15/9/5
f 12/19/5 10/26/5 23/25/5 18/20/5
f 23/25/5 21/21/5 6/3/5 13/7/5
f 10/26/5 4/22/5 21/21/5 23/25/5
f 14/12/6 24/27/6 17/18/6 16/14/6
f 24/27/6 9/28/6 11/15/6 17/18/6
f 22/23/6 3/24/6 9/28/6 24/27/6

