# Blender v2.93.6 OBJ File: ''
# www.blender.org
mtllib keycard 2.mtl
o Cube.001
v -0.118884 0.006726 -0.071469
v -0.118884 0.006726 0.071469
v 0.118884 0.006726 0.071469
v 0.118884 0.006726 -0.071469
v -0.132093 0.006054 0.071469
v -0.132093 0.006054 -0.071469
v -0.132093 -0.006054 -0.071469
v -0.132093 -0.006054 0.071469
v 0.118884 0.006054 0.079410
v -0.118884 0.006054 0.079410
v -0.118884 -0.006054 0.079410
v 0.118884 -0.006054 0.079410
v 0.118884 -0.006726 -0.071469
v 0.118884 -0.006726 0.071469
v -0.118884 -0.006726 0.071469
v -0.118884 -0.006726 -0.071469
v 0.132093 0.006054 -0.071469
v 0.132093 0.006054 0.071469
v 0.132093 -0.006054 0.071469
v 0.132093 -0.006054 -0.071469
v 0.118884 -0.006054 -0.079410
v 0.128224 -0.006054 -0.077084
v 0.126510 -0.006442 -0.076053
v 0.118884 -0.006529 -0.077084
v 0.128224 -0.006529 -0.071469
v 0.128224 0.006529 -0.071469
v 0.126510 0.006442 -0.076053
v 0.118884 0.006529 -0.077084
v 0.118884 0.006054 -0.079410
v 0.128224 0.006054 -0.077084
v 0.128224 -0.006054 0.077084
v 0.126510 -0.006442 0.076053
v 0.128224 -0.006529 0.071469
v 0.118884 -0.006529 0.077084
v 0.128224 0.006529 0.071469
v 0.126510 0.006442 0.076053
v 0.128224 0.006054 0.077084
v 0.118884 0.006529 0.077084
v -0.118884 -0.006054 -0.079410
v -0.118884 -0.006529 -0.077084
v -0.126510 -0.006442 -0.076053
v -0.128224 -0.006054 -0.077084
v -0.128224 -0.006529 -0.071469
v -0.128224 0.006529 -0.071469
v -0.126510 0.006442 -0.076053
v -0.128224 0.006054 -0.077084
v -0.118884 0.006054 -0.079410
v -0.118884 0.006529 -0.077084
v -0.128224 -0.006529 0.071469
v -0.126510 -0.006442 0.076053
v -0.128224 -0.006054 0.077084
v -0.118884 -0.006529 0.077084
v -0.128224 0.006529 0.071469
v -0.126510 0.006442 0.076053
v -0.118884 0.006529 0.077084
v -0.128224 0.006054 0.077084
vt 0.137500 0.512500
vt 0.137500 0.737500
vt 0.362500 0.737500
vt 0.362500 0.512500
vt 0.387500 0.012500
vt 0.387500 0.237500
vt 0.612500 0.237500
vt 0.612500 0.012500
vt 0.387500 0.762500
vt 0.387500 0.987500
vt 0.612500 0.987500
vt 0.612500 0.762500
vt 0.637500 0.512500
vt 0.637500 0.737500
vt 0.862500 0.737500
vt 0.862500 0.512500
vt 0.387500 0.512500
vt 0.387500 0.737500
vt 0.612500 0.737500
vt 0.612500 0.512500
vt 0.612500 0.487500
vt 0.612500 0.500000
vt 0.623239 0.500000
vt 0.625000 0.487500
vt 0.637500 0.500000
vt 0.625000 0.512500
vt 0.375000 0.512500
vt 0.375000 0.501761
vt 0.362500 0.500000
vt 0.387500 0.487500
vt 0.375000 0.487500
vt 0.387500 0.500000
vt 0.612500 0.750000
vt 0.625000 0.748239
vt 0.625000 0.737500
vt 0.637500 0.750000
vt 0.625000 0.762500
vt 0.375000 0.737500
vt 0.376761 0.750000
vt 0.387500 0.750000
vt 0.375000 0.762500
vt 0.362500 0.750000
vt 0.612500 0.262500
vt 0.625000 0.262500
vt 0.619717 0.250000
vt 0.612500 0.250000
vt 0.625000 0.244717
vt 0.625000 0.237500
vt 0.875000 0.512500
vt 0.869717 0.500000
vt 0.862500 0.500000
vt 0.375000 0.237500
vt 0.380283 0.250000
vt 0.387500 0.250000
vt 0.387500 0.262500
vt 0.375000 0.255283
vt 0.375000 0.262500
vt 0.137500 0.500000
vt 0.125000 0.505283
vt 0.125000 0.512500
vt 0.625000 0.012500
vt 0.619717 0.000000
vt 0.612500 0.000000
vt 0.612500 1.000000
vt 0.625000 0.994717
vt 0.625000 0.987500
vt 0.862500 0.750000
vt 0.875000 0.744717
vt 0.875000 0.737500
vt 0.125000 0.737500
vt 0.130283 0.750000
vt 0.137500 0.750000
vt 0.375000 0.987500
vt 0.380283 1.000000
vt 0.387500 1.000000
vt 0.387500 0.000000
vt 0.375000 0.005283
vt 0.375000 0.012500
vn 0.0000 1.0000 0.0000
vn -1.0000 0.0000 0.0000
vn 0.0000 0.0000 1.0000
vn 0.0000 -1.0000 -0.0000
vn 1.0000 0.0000 0.0000
vn 0.0495 -0.9730 -0.2252
vn 0.0186 -0.9993 -0.0310
vn 0.1372 -0.9870 -0.0835
vn 0.0186 0.9993 -0.0310
vn 0.0495 0.9730 -0.2252
vn 0.1372 0.9870 -0.0835
vn 0.1372 -0.9870 0.0835
vn 0.0186 -0.9993 0.0310
vn 0.0495 -0.9730 0.2252
vn 0.1372 0.9870 0.0835
vn 0.0495 0.9730 0.2252
vn 0.0186 0.9993 0.0310
vn -0.0495 -0.9730 -0.2252
vn -0.1372 -0.9870 -0.0835
vn -0.0186 -0.9993 -0.0310
vn -0.1372 0.9870 -0.0835
vn -0.0495 0.9730 -0.2252
vn -0.0186 0.9993 -0.0310
vn -0.1372 -0.9870 0.0835
vn -0.0495 -0.9730 0.2252
vn -0.0186 -0.9993 0.0310
vn -0.0186 0.9993 0.0310
vn -0.0495 0.9730 0.2252
vn -0.1372 0.9870 0.0835
vn -0.0211 0.9998 0.0000
vn -0.1219 0.9925 0.0000
vn 0.0000 0.9994 -0.0351
vn 0.0000 0.9798 -0.2001
vn 0.8234 0.0000 -0.5674
vn 0.2417 0.0000 -0.9704
vn -0.2417 0.0000 0.9704
vn -0.8234 0.0000 0.5674
vn 0.2417 0.0000 0.9704
vn 0.8234 0.0000 0.5674
vn -0.2417 0.0000 -0.9704
vn -0.8234 0.0000 -0.5674
vn 0.0000 -0.9994 0.0351
vn 0.0000 -0.9798 0.2001
vn 0.0211 -0.9998 -0.0000
vn 0.1219 -0.9925 -0.0000
vn 0.0000 0.9994 0.0351
vn 0.0000 0.9798 0.2001
vn -0.0211 -0.9998 -0.0000
vn -0.1219 -0.9925 -0.0000
vn 0.0000 -0.9994 -0.0351
vn 0.0000 -0.9798 -0.2001
vn 0.0211 0.9998 0.0000
vn 0.1219 0.9925 0.0000
vn 0.0000 0.0000 -1.0000
usemtl Material.001
s 1
f 1/1/1 2/2/1 3/3/1 4/4/1
f 5/5/2 6/6/2 7/7/2 8/8/2
f 9/9/3 10/10/3 11/11/3 12/12/3
f 13/13/4 14/14/4 15/15/4 16/16/4
f 17/17/5 18/18/5 19/19/5 20/20/5
f 21/21/6 22/22/6 23/23/6 24/24/6
f 13/13/7 24/25/7 23/23/7 25/26/7
f 20/20/8 25/26/8 23/23/8 22/22/8
f 4/4/9 26/27/9 27/28/9 28/29/9
f 29/30/10 28/31/10 27/28/10 30/32/10
f 17/17/11 30/32/11 27/28/11 26/27/11
f 19/19/12 31/33/12 32/34/12 33/35/12
f 14/14/13 33/35/13 32/34/13 34/36/13
f 12/12/14 34/37/14 32/34/14 31/33/14
f 18/18/15 35/38/15 36/39/15 37/40/15
f 9/9/16 37/40/16 36/39/16 38/41/16
f 3/3/17 38/42/17 36/39/17 35/38/17
f 39/43/18 40/44/18 41/45/18 42/46/18
f 7/7/19 42/46/19 41/47/19 43/48/19
f 16/16/20 43/49/20 41/50/20 40/51/20
f 6/6/21 44/52/21 45/53/21 46/54/21
f 47/55/22 46/54/22 45/56/22 48/57/22
f 1/1/23 48/58/23 45/59/23 44/60/23
f 8/8/24 49/61/24 50/62/24 51/63/24
f 11/11/25 51/64/25 50/65/25 52/66/25
f 15/15/26 52/67/26 50/68/26 49/69/26
f 2/2/27 53/70/27 54/71/27 55/72/27
f 10/10/28 55/73/28 54/74/28 56/75/28
f 5/5/29 56/76/29 54/77/29 53/78/29
f 1/1/30 44/60/30 53/70/30 2/2/30
f 44/52/31 6/6/31 5/5/31 53/78/31
f 4/4/32 28/29/32 48/58/32 1/1/32
f 28/31/33 29/30/33 47/55/33 48/57/33
f 20/20/34 22/22/34 30/32/34 17/17/34
f 22/22/35 21/21/35 29/30/35 30/32/35
f 10/10/36 56/75/36 51/64/36 11/11/36
f 56/76/37 5/5/37 8/8/37 51/63/37
f 12/12/38 31/33/38 37/40/38 9/9/38
f 31/33/39 19/19/39 18/18/39 37/40/39
f 39/43/40 42/46/40 46/54/40 47/55/40
f 42/46/41 7/7/41 6/6/41 46/54/41
f 14/14/42 34/36/42 52/67/42 15/15/42
f 34/37/43 12/12/43 11/11/43 52/66/43
f 13/13/44 25/26/44 33/35/44 14/14/44
f 25/26/45 20/20/45 19/19/45 33/35/45
f 2/2/46 55/72/46 38/42/46 3/3/46
f 55/73/47 10/10/47 9/9/47 38/41/47
f 15/15/48 49/69/48 43/49/48 16/16/48
f 49/61/49 8/8/49 7/7/49 43/48/49
f 16/16/50 40/51/50 24/25/50 13/13/50
f 40/44/51 39/43/51 21/21/51 24/24/51
f 3/3/52 35/38/52 26/27/52 4/4/52
f 35/38/53 18/18/53 17/17/53 26/27/53
f 47/55/54 29/30/54 21/21/54 39/43/54
o Cube_Cube.003
v -0.000227 0.002840 -0.054617
v -0.000227 0.012466 -0.054617
v 0.001310 0.002840 -0.054602
v 0.001310 0.012466 -0.054602
v -0.074848 0.004397 0.053872
v -0.074848 0.013147 0.053872
v 0.073765 0.004397 0.055346
v 0.073765 0.013147 0.055346
vt 0.375000 0.000000
vt 0.625000 0.000000
vt 0.625000 0.250000
vt 0.375000 0.250000
vt 0.625000 0.500000
vt 0.375000 0.500000
vt 0.625000 0.750000
vt 0.375000 0.750000
vt 0.625000 1.000000
vt 0.375000 1.000000
vt 0.125000 0.500000
vt 0.125000 0.750000
vt 0.875000 0.500000
vt 0.875000 0.750000
vn 0.0099 0.0000 -1.0000
vn 0.8350 0.0000 -0.5503
vn -0.0099 0.0000 1.0000
vn -0.8239 0.0000 -0.5667
vn -0.0001 -0.9999 0.0143
vn 0.0001 1.0000 -0.0062
usemtl Material.003
s off
f 57/79/55 58/80/55 60/81/55 59/82/55
f 59/82/56 60/81/56 64/83/56 63/84/56
f 63/84/57 64/83/57 62/85/57 61/86/57
f 61/86/58 62/85/58 58/87/58 57/88/58
f 59/89/59 63/84/59 61/86/59 57/90/59
f 64/83/60 60/91/60 58/92/60 62/85/60
